<?xml version="1.0" encoding="UTF-8" standalone="no"?>
<!DOCTYPE svg PUBLIC "-//W3C//DTD SVG 1.1//EN" "http://www.w3.org/Graphics/SVG/1.1/DTD/svg11.dtd">
<svg width="100%" height="100%" viewBox="0 0 242 242" version="1.1" xmlns="http://www.w3.org/2000/svg" xmlns:xlink="http://www.w3.org/1999/xlink" xml:space="preserve" xmlns:serif="http://www.serif.com/" style="fill-rule:evenodd;clip-rule:evenodd;stroke-linejoin:round;stroke-miterlimit:2;">
    <g>
        <path id="Close" d="M138.138,120.754L237.256,22.178C242.008,17.474 242.008,9.859 237.256,5.167C232.516,0.463 224.817,0.463 220.077,5.167L121.044,103.659L21.095,3.699C16.355,-1.053 8.656,-1.053 3.916,3.699C-0.824,8.463 -0.824,16.174 3.916,20.926L103.792,120.814L3.555,220.497C-1.185,225.201 -1.185,232.816 3.555,237.508C8.295,242.212 15.994,242.212 20.734,237.508L120.886,137.909L220.437,237.472C225.177,242.224 232.876,242.224 237.616,237.472C242.356,232.708 242.356,224.997 237.616,220.245L138.138,120.754Z" style="fill:white;fill-rule:nonzero;"/>
    </g>
</svg>
